HIERARCHY
ROOT Hips
{
  OFFSET 3.13124 94.3669 -3.18751
  CHANNELS  6 Xposition Yposition Zposition Zrotation Xrotation Yrotation
  JOINT LeftUpLeg
  {
    OFFSET 8.64259 1.95398 -2.38835
    CHANNELS 3 Zrotation Xrotation Yrotation
    JOINT LeftLeg
    {
      OFFSET 43.7702 0 0
      CHANNELS 3 Zrotation Xrotation Yrotation
      JOINT LeftFoot
      {
        OFFSET 40.6238 0 0
        CHANNELS 3 Zrotation Xrotation Yrotation
        JOINT LeftToeBase
        {
          OFFSET 12.7242 0 0
          CHANNELS 3 Zrotation Xrotation Yrotation
          End Site
          {
            OFFSET 0 0 0
          }
        }
      }
    }
  }
  JOINT RightUpLeg
  {
    OFFSET -8.2249 1.95398 -2.59336
    CHANNELS 3 Zrotation Xrotation Yrotation
    JOINT RightLeg
    {
      OFFSET 43.5653 0 0
      CHANNELS 3 Zrotation Xrotation Yrotation
      JOINT RightFoot
      {
        OFFSET 40.6238 0 0
        CHANNELS 3 Zrotation Xrotation Yrotation
        JOINT RightToeBase
        {
          OFFSET 12.7242 0 0
          CHANNELS 3 Zrotation Xrotation Yrotation
          End Site
          {
            OFFSET 0 0 0
          }
        }
      }
    }
  }
  JOINT Spine
  {
    OFFSET 0.165834 0.87714 6.61349
    CHANNELS 3 Zrotation Xrotation Yrotation
    JOINT Spine1
    {
      OFFSET 7.38962 1.71661e-005 0
      CHANNELS 3 Zrotation Xrotation Yrotation
      JOINT Spine2
      {
        OFFSET 11.9445 1.14441e-005 0
        CHANNELS 3 Zrotation Xrotation Yrotation
        JOINT Spine3
        {
          OFFSET 14.7254 4.19617e-005 0
          CHANNELS 3 Zrotation Xrotation Yrotation
          JOINT Spine4
          {
            OFFSET 10.9679 0 0
            CHANNELS 3 Zrotation Xrotation Yrotation
            JOINT RightShoulder
            {
              OFFSET 2.46616 -1.6653 3.69651
              CHANNELS 3 Zrotation Xrotation Yrotation
              JOINT RightArm
              {
                OFFSET 13.0012 0 0
                CHANNELS 3 Zrotation Xrotation Yrotation
                JOINT RightForeArm
                {
                  OFFSET 28.7848 1.52588e-005 0
                  CHANNELS 3 Zrotation Xrotation Yrotation
                  JOINT RightHand
                  {
                    OFFSET 26.5688 1.52588e-005 0
                    CHANNELS 3 Zrotation Xrotation Yrotation
                    End Site
                    {
                      OFFSET 0 0 0
                    }
                  }
                }
              }
            }
            JOINT LeftShoulder
            {
              OFFSET 2.38034 -1.29275 -3.75231
              CHANNELS 3 Zrotation Xrotation Yrotation
              JOINT LeftArm
              {
                OFFSET 16.3182 6.10352e-005 0
                CHANNELS 3 Zrotation Xrotation Yrotation
                JOINT LeftForeArm
                {
                  OFFSET 27.0901 0 0
                  CHANNELS 3 Zrotation Xrotation Yrotation
                  JOINT LeftHand
                  {
                    OFFSET 24.5451 1.52588e-005 0
                    CHANNELS 3 Zrotation Xrotation Yrotation
                    End Site
                    {
                      OFFSET 0 0 0
                    }
                  }
                }
              }
            }
            JOINT Neck
            {
              OFFSET 5.0226 -0.0266342 0
              CHANNELS 3 Zrotation Xrotation Yrotation
              JOINT Head
              {
                OFFSET 6.69363 2.86102e-005 0
                CHANNELS 3 Zrotation Xrotation Yrotation
                End Site
                {
                  OFFSET 0 0 0
                }
              }
            }
          }
        }
      }
    }
  }
}
MOTION
Frames:	15
Frame Time:	0.0333333
-22.7897 84.4361 -39.395 61.1405 -47.2112 71.4024 -171.624 48.1841 102.026 -39.4053 4.15572 -0.285362 66.7653 -1.47841 -0.832717 28.7808 5.30548e-006 2.35571e-006 -179.873 37.756 74.7717 -26.467 19.9593 1.04864 57.2565 1.9768 1.52592 28.7808 1.44536e-005 1.25486e-005 1.64059 8.77639 -90.9736 9.37525 3.07509 -2.7687 -2.29526 2.9502 -2.9023 -24.8488 3.76535 -1.7158 -4.83616 3.76535 -1.71584 92.4127 -33.4673 -100.909 16.2632 24.4656 -57.5555 164.546 23.1765 -155.098 -9.1931 11.6296 -105.159 -130.898 -57.9798 27.7938 -0.502031 -26.839 -30.5112 2.34589 4.4263 -3.3747 -31.8514 4.45629 -20.8262 -1.67776 -2.58865 38.6804 -5.85167 -7.11704 -9.95854 
-22.0115 84.9964 -38.8353 63.5465 -44.7576 73.9158 -171.818 46.5476 100.947 -37.5707 6.31789 0.611621 66.3322 -1.44743 -0.831624 28.7808 5.30548e-006 2.35571e-006 179.547 34.9234 74.4427 -25.8866 21.0644 1.15271 56.7123 1.87976 1.49001 28.7808 1.44536e-005 1.25486e-005 1.82872 8.86582 -91.0875 9.19227 3.29442 -2.79044 -2.47778 3.16849 -2.93271 -25.0356 3.98051 -1.67754 -5.02294 3.98051 -1.67757 86.7964 -33.7579 -111.374 20.0142 15.8333 -62.6245 -178.189 -65.2141 -176.498 20.984 -16.4901 -74.085 -125.047 -59.0967 35.3505 15.8834 -35.0507 -26.9726 -176.883 -79.7192 -179.93 18.8096 3.20301 16.3399 -3.13038 -2.8237 40.5633 -5.34362 -7.10696 -10.9419 
-20.6839 85.7137 -37.8678 65.8343 -43.4821 75.438 -171.574 43.4971 99.7132 -35.6789 6.69622 0.981624 66.2162 -1.0977 -0.647651 28.7808 5.30548e-006 2.35571e-006 178.82 31.5783 73.6384 -24.9738 18.844 1.01001 56.2203 1.45262 1.23251 28.7808 1.44536e-005 1.25486e-005 2.54448 8.94062 -91.5208 9.07956 4.50999 -3.753 -2.58956 4.34057 -3.94781 -25.1686 5.42877 -2.22238 -5.15598 5.42878 -2.22241 86.9944 -26.7813 -114.245 32.1554 -2.64296 -40.5877 -37.8823 -21.2182 -65.0794 70.5715 4.0336 2.00833 -126.911 -61.2096 34.2651 33.391 -33.0866 -2.63454 1.58616 -52.2648 -2.46734 -87.4188 -32.3133 30.7212 -6.60756 -6.4836 48.8103 -7.04014 -9.64011 -19.6226 
-18.7954 86.565 -36.5871 68.8377 -41.8192 77.6653 -171.269 39.54 98.5562 -33.5468 8.28971 1.72427 66.3069 -0.966365 -0.584081 28.7808 5.30548e-006 2.35571e-006 177.696 26.7777 72.8697 -23.2917 16.2372 0.84204 55.1982 1.02031 0.989214 28.7808 1.44536e-005 1.25486e-005 3.83199 8.89573 -92.3528 9.2605 6.69779 -5.69775 -2.40691 6.44098 -5.9868 -25.0404 8.09843 -3.41609 -5.02773 8.09843 -3.41612 89.4334 -16.5719 -114.614 35.2995 -13.6191 -48.8337 -25.7581 -18.129 -55.7978 38.3759 6.65678 13.5124 -138.472 -60.8355 20.8539 34.3999 -34.5974 -4.92749 1.51877 -61.7337 -2.32248 -28.8492 -7.23575 26.5924 -12.8687 -13.9389 56.3071 -12.6866 -12.7822 -31.2606 
-17.2505 87.342 -35.6512 70.3665 -37.7859 80.0981 -171.585 37.8461 97.7985 -31.1749 11.6269 2.83268 65.6407 -0.861547 -0.546781 28.7808 5.30548e-006 2.35571e-006 176.647 22.5696 72.9798 -21.3868 16.2915 0.889961 53.2467 1.21513 1.20802 28.7808 1.44536e-005 1.25486e-005 5.14689 8.4919 -93.4583 10.1819 8.70275 -7.91858 -1.48624 8.3477 -8.29314 -24.1669 10.6777 -4.92681 -4.15424 10.6777 -4.92685 92.0206 -7.48197 -113.986 31.6743 -14.917 -55.3234 -24.0037 -12.7758 -62.5276 36.9226 14.1027 34.956 -149.873 -59.7854 7.88331 37.1275 -36.4969 -6.63034 1.43904 -73.6026 -2.15677 -20.6515 -0.97778 1.02398 -19.7983 -22.4571 59.3101 -20.4124 -14.3259 -43.1684 
-16.3083 87.9679 -34.63 71.2735 -33.3728 82.8104 -171.559 37.1469 98.1625 -28.8329 15.8128 3.34624 64.8426 -1.16849 -0.73655 28.7808 5.30548e-006 2.35571e-006 176.494 19.8666 74.1057 -22.0446 17.5219 0.994093 51.4841 1.59336 1.55503 28.7808 1.44536e-005 1.25486e-005 3.86771 8.95838 -91.3672 9.04047 7.04725 -3.06447 -2.61584 6.89555 -3.3709 -25.3019 7.60299 -0.805549 -5.28923 7.60297 -0.805555 86.5675 -25.2712 -116.105 24.4736 -16.494 -78.0491 -21.0907 -9.51137 -65.9737 32.2727 9.87382 27.6012 -92.8829 -48.2114 74.1955 37.4059 -40.381 -12.9063 -174.981 -80.4879 -177.995 -14.2064 -0.95565 4.27254 -1.9782 -5.82978 38.0551 -26.9424 -5.17318 -29.9666 
-15.4065 88.4676 -33.7233 72.0981 -28.2777 85.6315 -171.568 36.8116 98.5465 -26.7655 20.4557 3.87515 64.0564 -1.72662 -1.06744 28.7808 5.30548e-006 2.35571e-006 176.936 18.1224 75.4758 -24.9758 19.6555 1.15246 49.3254 1.98403 1.94052 28.7808 1.44536e-005 1.25486e-005 3.67792 6.74213 -89.5447 13.3513 7.35856 0.528358 1.70141 7.37463 0.202185 -20.9838 6.85802 2.72578 -0.9712 6.85802 2.72577 47.4416 -67.8738 -148.342 24.4342 -22.3623 -58.6936 -34.612 -2.31746 -88.4627 48.8716 15.7573 28.3835 -85.4722 -11.1607 76.5678 42.5419 -45.0323 22.0632 -88.6547 -50.8057 -91.9635 -20.091 -4.14529 21.5381 -45.7486 1.85924 -31.056 8.16185 -5.59595 14.0512 
-14.1857 88.9684 -32.9911 73.799 -24.07 87.7489 -171.268 34.7397 98.353 -24.5254 23.5326 4.07602 63.39 -2.34448 -1.43932 28.7808 5.30548e-006 2.35571e-006 177.199 16.0757 75.8464 -28.2924 18.6012 1.06511 46.8764 1.71661 1.89538 28.7808 1.44536e-005 1.25486e-005 3.71645 6.69508 -89.806 13.4563 7.28356 0.181812 1.80582 7.2845 -0.140667 -20.8811 6.88996 2.37295 -0.868465 6.88997 2.37294 55.0833 -65.8049 -140.762 21.2043 -18.0954 -64.9934 -21.4392 -0.527898 -92.3571 34.5287 12.0087 32.0413 -83.7074 -9.89703 80.3833 46.2631 -52.3936 23.3185 -70.717 -40.1553 -80.5058 -25.0163 -4.38988 16.8532 -46.2737 0.766125 -28.8513 4.35588 -7.18825 7.22192 
-13.1794 89.3731 -32.4607 74.6633 -21.3739 89.0019 -170.827 33.21 98.382 -22.5463 25.5975 4.03346 62.7351 -3.0074 -1.85074 28.7808 5.30548e-006 2.35571e-006 177.371 15.1266 75.9087 -30.7482 13.6751 0.69516 45.2632 0.475289 0.974219 28.7808 1.44536e-005 1.25486e-005 3.71485 6.59089 -89.8992 13.6686 7.23171 0.0181347 2.01785 7.22526 -0.301845 -20.6688 6.88789 2.20117 -0.656122 6.88788 2.20116 59.4248 -64.4349 -136.359 21.0271 -7.88986 -67.185 -6.61987 -0.0758604 -96.4498 35.8961 10.6644 26.5723 -82.2544 -7.41277 83.6574 49.3252 -59.0445 26.6324 -60.5925 -28.0135 -78.5232 -27.5735 -4.29414 14.2704 -46.0689 0.0966018 -27.0031 0.705681 -7.65123 2.89126 
-12.2936 89.7864 -31.996 75.6614 -19.9094 90.1136 -170.241 31.4264 98.6802 -20.8869 27.4613 4.07593 62.1303 -3.14071 -1.96039 28.7808 5.30548e-006 2.35571e-006 177.138 13.6856 75.9918 -30.9653 7.48563 0.294846 45.8435 0.484027 0.973222 28.7808 1.44536e-005 1.25486e-005 3.74557 6.52206 -90.0583 13.8141 7.22424 -0.28151 2.16324 7.20532 -0.600938 -20.5264 6.97507 1.91421 -0.513754 6.97511 1.91421 61.9594 -63.634 -133.727 21.4947 -0.447813 -68.7173 2.44812 -1.05135 -99.57 34.7569 11.3329 29.5409 -81.5149 -6.6666 85.6291 53.1673 -64.3526 32.02 -57.2288 -18.9412 -81.5935 -32.6136 -3.55391 8.47531 -46.0717 -0.540333 -24.4125 -1.24521 -7.65875 -0.151683 
-11.6796 90.0516 -31.7336 76.2546 -19.7306 90.4875 -169.821 29.9802 98.888 -19.6358 27.9665 3.95139 61.8812 -3.35647 -2.09527 28.7808 5.30548e-006 2.35571e-006 176.807 13.5823 75.5452 -30.4144 -1.47376 -0.233613 47.7045 -0.570796 0.1038 28.7808 1.44536e-005 1.25486e-005 3.80435 6.45093 -90.1367 13.9565 7.3145 -0.395966 2.30617 7.28984 -0.719752 -20.3884 7.0942 1.83199 -0.375779 7.09417 1.83197 62.0078 -64.0682 -133.434 22.6844 4.57424 -67.3227 7.26403 -1.64847 -99.4822 35.2388 8.97064 22.2487 -80.567 -5.85527 88.2811 60.529 -71.813 41.0693 -65.0736 -8.83986 -88.4927 -33.4079 -5.67224 15.5392 -46.2545 -0.80059 -23.0539 -1.52757 -7.58225 -0.905723 
-11.354 90.1764 -31.5336 76.6795 -20.5764 90.3232 -169.509 28.8377 99.0428 -18.9991 27.4015 3.73166 61.8438 -3.34402 -2.08354 28.7808 5.30548e-006 2.35571e-006 176.52 14.6432 74.8925 -29.0885 -5.70535 -0.464501 48.2748 0.198152 0.690251 28.7808 1.44536e-005 1.25486e-005 3.85231 6.39674 -90.1574 14.0623 7.40886 -0.403885 2.41238 7.38405 -0.731391 -20.2865 7.18593 1.85522 -0.273811 7.18591 1.8552 60.4798 -64.9347 -134.836 23.0386 5.86578 -65.1485 5.18036 -1.37794 -99.4239 31.4022 7.24688 19.8948 -79.866 -5.78936 90.4268 66.4778 -79.1319 49.3581 -63.094 1.67567 -94.1138 -32.3082 -6.57403 19.4224 -46.5683 -0.820136 -22.185 -0.176799 -7.36655 -0.0387005 
-11.331 90.1134 -31.2568 77.0885 -21.9368 90.1128 -169.265 28.2684 99.405 -19.3471 26.2223 3.48061 62.3628 -3.29733 -2.02011 28.7808 5.30548e-006 2.35571e-006 176.466 16.3831 74.5698 -27.4702 -4.37927 -0.370617 48.9928 0.437858 0.848199 28.7808 1.44536e-005 1.25486e-005 3.83601 6.35824 -90.1322 14.1376 7.40604 -0.351904 2.48773 7.38388 -0.679143 -20.2104 7.16674 1.9008 -0.197697 7.16674 1.9008 57.2571 -66.1354 -138.038 23.5965 6.38281 -61.6581 4.05875 -1.08332 -98.2716 29.6044 5.90249 16.6163 -79.7345 -6.45697 90.8966 107.437 -85.2169 92.2042 -59.0316 11.7185 -99.4484 -33.3722 -9.37284 28.5926 -46.3436 -0.358683 -22.163 0.617787 -6.75215 2.33245 
-11.6883 89.7709 -30.8672 77.2855 -23.3322 89.7862 -169.518 28.6529 99.7678 -21.1715 24.5334 3.67334 63.4236 -2.89106 -1.72537 28.7808 5.30548e-006 2.35571e-006 176.88 19.249 74.5226 -27.0791 1.87879 -0.00467314 49.0341 -0.235946 0.326501 28.7808 1.44536e-005 1.25486e-005 3.74983 6.34488 -90.0904 14.1742 7.25632 -0.288588 2.52355 7.22891 -0.60937 -20.1682 7.00585 1.91663 -0.155548 7.00584 1.91662 53.5108 -67.1254 -141.939 24.023 5.51777 -57.7246 1.2808 -0.550218 -95.1755 27.547 4.42923 12.7038 -80.5326 -8.90977 89.558 135.73 -86.7394 124.286 -50.9932 16.0137 -105.176 -42.3998 -9.2747 20.4286 -46.0735 0.0209018 -21.9159 1.17933 -6.03366 4.215 
-12.3867 89.1963 -30.3635 77.3086 -24.6695 89.0785 -169.851 29.6448 99.9633 -23.6187 22.7733 3.79014 64.618 -2.42358 -1.40386 28.7808 5.30548e-006 2.35571e-006 177.584 22.7432 74.4966 -27.3071 10.0909 0.485464 47.783 -0.115576 0.434572 28.7808 1.44536e-005 1.25486e-005 4.36013 8.06394 -92.7152 10.8315 7.28096 -5.34198 -0.832917 7.02594 -5.65731 -23.4987 8.54763 -2.89768 -3.48604 8.54762 -2.8977 89.4235 -18.8611 -113.245 24.1729 14.0467 -61.3284 18.6021 3.05105 -84.4951 6.35417 1.00271 11.6443 -94.5658 -58.6603 74.2762 -143.213 -78.2718 -164.481 -36.4595 14.8749 -112.079 -50.3157 -5.25489 7.16565 -10.1943 -7.82105 53.5148 -29.2212 1.5504 -47.5937 
